<?xml version="1.0" standalone="no"?>
<!DOCTYPE svg PUBLIC "-//W3C//DTD SVG 1.1//EN"
"http://www.w3.org/Graphics/SVG/1.1/DTD/svg11.dtd">

<svg width="691" height="771" view_box="0 0 691 771"
xmlns="http://www.w3.org/2000/svg"
xmlns:link="http://www.w3.org/1999/xlink">\n\n<desc>Généré par Mocodo 2.3.7 le Mon, 12 Nov 2018 23:48:49</desc>

<rect id="frame" x="0" y="0" width="691" height="771" fill="#ffffbf" stroke="none" stroke-width="0"/>

<!-- Association Prendre -->
<line x1="170" y1="305" x2="170" y2="584" stroke="#f46d43" stroke-width="2"/>
<text x="175.0" y="441" fill="#1a9850" font-family="Verdana" font-size="12">0,N</text>
<line x1="285" y1="584" x2="170" y2="584" stroke="#f46d43" stroke-width="2"/>
<text x="207" y="601.0" fill="#1a9850" font-family="Verdana" font-size="12">1,1</text>
<g id="association-Prendre">
	<path d="M 187 559 a 14 14 90 0 1 14 14 V 584 h -62 V 573 a 14 14 90 0 1 14 -14" fill="#fdae61" stroke="#fdae61" stroke-width="0"/>
	<path d="M 201 584.0 v 11 a 14 14 90 0 1 -14 14 H 153 a 14 14 90 0 1 -14 -14 V 584.0 H 62" fill="#fee08b" stroke="#fee08b" stroke-width="0"/>
	<rect x="139" y="559" width="62" height="50" fill="none" rx="14" stroke="#f46d43" stroke-width="2"/>
	<line x1="139" y1="584" x2="201" y2="584" stroke="#f46d43" stroke-width="1"/>
	<text x="146" y="576.7" fill="#000000" font-family="Verdana" font-size="12">Prendre</text>
</g>

<!-- Association Infecter -->
<line x1="170" y1="305" x2="421" y2="161" stroke="#f46d43" stroke-width="2"/>
<text x="225" y="288.858345005" fill="#1a9850" font-family="Verdana" font-size="12">0,N</text>
<line x1="563" y1="161" x2="421" y2="161" stroke="#f46d43" stroke-width="2"/>
<text x="494" y="178.0" fill="#1a9850" font-family="Verdana" font-size="12">0,N</text>
<line x1="421" y1="305" x2="421" y2="161" stroke="#f46d43" stroke-width="2"/>
<text x="426.0" y="246" fill="#1a9850" font-family="Verdana" font-size="12">0,N</text>
<g id="association-Infecter">
	<path d="M 456 127 a 14 14 90 0 1 14 14 V 152 h -98 V 141 a 14 14 90 0 1 14 -14" fill="#fdae61" stroke="#fdae61" stroke-width="0"/>
	<path d="M 470 152.0 v 29 a 14 14 90 0 1 -14 14 H 386 a 14 14 90 0 1 -14 -14 V 152.0 H 98" fill="#fee08b" stroke="#fee08b" stroke-width="0"/>
	<rect x="372" y="127" width="98" height="68" fill="none" rx="14" stroke="#f46d43" stroke-width="2"/>
	<line x1="372" y1="152" x2="470" y2="152" stroke="#f46d43" stroke-width="1"/>
	<text x="397" y="144.7" fill="#000000" font-family="Verdana" font-size="12">Infecter</text>
	<text x="379" y="169.8" fill="#000000" font-family="Verdana" font-size="12">dateDignostic</text>
	<text x="379" y="186.8" fill="#000000" font-family="Verdana" font-size="12">dateGuerison</text>
</g>

<!-- Association Disponible -->
<line x1="421" y1="305" x2="421" y2="474" stroke="#f46d43" stroke-width="2"/>
<text x="426.0" y="373" fill="#1a9850" font-family="Verdana" font-size="12">1,1</text>
<line x1="563" y1="474" x2="421" y2="474" stroke="#f46d43" stroke-width="2"/>
<text x="482" y="491.0" fill="#1a9850" font-family="Verdana" font-size="12">0,N</text>
<g id="association-Disponible">
	<path d="M 446 449 a 14 14 90 0 1 14 14 V 474 h -78 V 463 a 14 14 90 0 1 14 -14" fill="#fdae61" stroke="#fdae61" stroke-width="0"/>
	<path d="M 460 474.0 v 11 a 14 14 90 0 1 -14 14 H 396 a 14 14 90 0 1 -14 -14 V 474.0 H 78" fill="#fee08b" stroke="#fee08b" stroke-width="0"/>
	<rect x="382" y="449" width="78" height="50" fill="none" rx="14" stroke="#f46d43" stroke-width="2"/>
	<line x1="382" y1="474" x2="460" y2="474" stroke="#f46d43" stroke-width="1"/>
	<text x="389" y="466.7" fill="#000000" font-family="Verdana" font-size="12">Disponible</text>
</g>

<!-- Association Faire -->
<line x1="421" y1="305" x2="563" y2="305" stroke="#f46d43" stroke-width="2"/>
<text x="481" y="322.0" fill="#1a9850" font-family="Verdana" font-size="12">1,1</text>
<line x1="650" y1="305" x2="563" y2="305" stroke="#f46d43" stroke-width="2"/>
<text x="591" y="322.0" fill="#1a9850" font-family="Verdana" font-size="12">0,N</text>
<g id="association-Faire">
	<path d="M 572 280 a 14 14 90 0 1 14 14 V 305 h -46 V 294 a 14 14 90 0 1 14 -14" fill="#fdae61" stroke="#fdae61" stroke-width="0"/>
	<path d="M 586 305.0 v 11 a 14 14 90 0 1 -14 14 H 554 a 14 14 90 0 1 -14 -14 V 305.0 H 46" fill="#fee08b" stroke="#fee08b" stroke-width="0"/>
	<rect x="540" y="280" width="46" height="50" fill="none" rx="14" stroke="#f46d43" stroke-width="2"/>
	<line x1="540" y1="305" x2="586" y2="305" stroke="#f46d43" stroke-width="1"/>
	<text x="547" y="297.7" fill="#000000" font-family="Verdana" font-size="12">Faire</text>
</g>

<!-- Association Commander -->
<line x1="421" y1="711" x2="563" y2="711" stroke="#f46d43" stroke-width="2"/>
<text x="491" y="728.0" fill="#1a9850" font-family="Verdana" font-size="12">0,N</text>
<line x1="563" y1="584" x2="563" y2="711" stroke="#f46d43" stroke-width="2"/>
<text x="568.0" y="652" fill="#1a9850" font-family="Verdana" font-size="12">1,1</text>
<g id="association-Commander">
	<path d="M 594 686 a 14 14 90 0 1 14 14 V 711 h -90 V 700 a 14 14 90 0 1 14 -14" fill="#fdae61" stroke="#fdae61" stroke-width="0"/>
	<path d="M 608 711.0 v 11 a 14 14 90 0 1 -14 14 H 532 a 14 14 90 0 1 -14 -14 V 711.0 H 90" fill="#fee08b" stroke="#fee08b" stroke-width="0"/>
	<rect x="518" y="686" width="90" height="50" fill="none" rx="14" stroke="#f46d43" stroke-width="2"/>
	<line x1="518" y1="711" x2="608" y2="711" stroke="#f46d43" stroke-width="1"/>
	<text x="525" y="703.7" fill="#000000" font-family="Verdana" font-size="12">Commander</text>
</g>

<!-- Association Allonger -->
<line x1="170" y1="305" x2="56" y2="305" stroke="#f46d43" stroke-width="2"/>
<text x="94" y="322.0" fill="#1a9850" font-family="Verdana" font-size="12">0,1</text>
<line x1="56" y1="68" x2="56" y2="305" stroke="#f46d43" stroke-width="2"/>
<text x="61.0" y="144" fill="#1a9850" font-family="Verdana" font-size="12">0,N</text>
<g id="association-Allonger">
	<path d="M 74 280 a 14 14 90 0 1 14 14 V 305 h -64 V 294 a 14 14 90 0 1 14 -14" fill="#fdae61" stroke="#fdae61" stroke-width="0"/>
	<path d="M 88 305.0 v 11 a 14 14 90 0 1 -14 14 H 38 a 14 14 90 0 1 -14 -14 V 305.0 H 64" fill="#fee08b" stroke="#fee08b" stroke-width="0"/>
	<rect x="24" y="280" width="64" height="50" fill="none" rx="14" stroke="#f46d43" stroke-width="2"/>
	<line x1="24" y1="305" x2="88" y2="305" stroke="#f46d43" stroke-width="1"/>
	<text x="31" y="297.7" fill="#000000" font-family="Verdana" font-size="12">Allonger</text>
</g>

<!-- Association Affecter -->
<line x1="170" y1="305" x2="285" y2="68" stroke="#f46d43" stroke-width="2"/>
<text x="225" y="215.160283474" fill="#1a9850" font-family="Verdana" font-size="12">1,1</text>
<line x1="563" y1="68" x2="285" y2="68" stroke="#f46d43" stroke-width="2"/>
<text x="506" y="85.0" fill="#1a9850" font-family="Verdana" font-size="12">0,N</text>
<g id="association-Affecter">
	<path d="M 302 43 a 14 14 90 0 1 14 14 V 68 h -62 V 57 a 14 14 90 0 1 14 -14" fill="#fdae61" stroke="#fdae61" stroke-width="0"/>
	<path d="M 316 68.0 v 11 a 14 14 90 0 1 -14 14 H 268 a 14 14 90 0 1 -14 -14 V 68.0 H 62" fill="#fee08b" stroke="#fee08b" stroke-width="0"/>
	<rect x="254" y="43" width="62" height="50" fill="none" rx="14" stroke="#f46d43" stroke-width="2"/>
	<line x1="254" y1="68" x2="316" y2="68" stroke="#f46d43" stroke-width="1"/>
	<text x="261" y="60.7" fill="#000000" font-family="Verdana" font-size="12">Affecter</text>
</g>

<!-- Association Composer -->
<line x1="285" y1="584" x2="421" y2="584" stroke="#f46d43" stroke-width="2"/>
<text x="342" y="601.0" fill="#1a9850" font-family="Verdana" font-size="12">1,N</text>
<line x1="563" y1="584" x2="421" y2="584" stroke="#f46d43" stroke-width="2"/>
<text x="481" y="601.0" fill="#1a9850" font-family="Verdana" font-size="12">0,N</text>
<g id="association-Composer">
	<path d="M 459 559 a 14 14 90 0 1 14 14 V 584 h -104 V 573 a 14 14 90 0 1 14 -14" fill="#fdae61" stroke="#fdae61" stroke-width="0"/>
	<path d="M 473 584.0 v 11 a 14 14 90 0 1 -14 14 H 383 a 14 14 90 0 1 -14 -14 V 584.0 H 104" fill="#fee08b" stroke="#fee08b" stroke-width="0"/>
	<rect x="369" y="559" width="104" height="50" fill="none" rx="14" stroke="#f46d43" stroke-width="2"/>
	<line x1="369" y1="584" x2="473" y2="584" stroke="#f46d43" stroke-width="1"/>
	<text x="390" y="576.7" fill="#000000" font-family="Verdana" font-size="12">Composer</text>
	<text x="376" y="601.8" fill="#000000" font-family="Verdana" font-size="12">quantiteMedoc</text>
</g>

<!-- Association Gerer -->
<line x1="421" y1="305" x2="285" y2="474" stroke="#f46d43" stroke-width="2"/>
<text x="378.963258804" y="373" fill="#1a9850" font-family="Verdana" font-size="12">0,N</text>
<line x1="285" y1="584" x2="285" y2="474" stroke="#f46d43" stroke-width="2"/>
<text x="290.0" y="525" fill="#1a9850" font-family="Verdana" font-size="12">0,N</text>
<g id="association-Gerer">
	<path d="M 327 449 a 14 14 90 0 1 14 14 V 474 h -112 V 463 a 14 14 90 0 1 14 -14" fill="#fdae61" stroke="#fdae61" stroke-width="0"/>
	<path d="M 341 474.0 v 11 a 14 14 90 0 1 -14 14 H 243 a 14 14 90 0 1 -14 -14 V 474.0 H 112" fill="#fee08b" stroke="#fee08b" stroke-width="0"/>
	<rect x="229" y="449" width="112" height="50" fill="none" rx="14" stroke="#f46d43" stroke-width="2"/>
	<line x1="229" y1="474" x2="341" y2="474" stroke="#f46d43" stroke-width="1"/>
	<text x="267" y="466.7" fill="#000000" font-family="Verdana" font-size="12">Gerer</text>
	<text x="236" y="491.8" fill="#000000" font-family="Verdana" font-size="12">datePrescription</text>
</g>

<!-- Entity Maladie -->
<g id="entity-Maladie">
	<g id="frame-Maladie">
		<rect x="521" y="127" width="84" height="25" fill="#a6d96a" stroke="#a6d96a" stroke-width="0"/>
		<rect x="521" y="152.0" width="84" height="43" fill="#d9ef8b" stroke="#d9ef8b" stroke-width="0"/>
		<rect x="521" y="127" width="84" height="68" fill="none" stroke="#66bd63" stroke-width="2"/>
		<line x1="521" y1="152" x2="605" y2="152" stroke="#66bd63" stroke-width="1"/>
	</g>
	<text x="539" y="144.7" fill="#000000" font-family="Verdana" font-size="12">Maladie</text>
	<text x="526" y="169.8" fill="#000000" font-family="Verdana" font-size="12">idMaladie</text>
	<line x1="526" y1="172" x2="584" y2="172" stroke="#000000" stroke-width="1"/>
	<text x="526" y="186.8" fill="#000000" font-family="Verdana" font-size="12">nomMaladie</text>
</g>

<!-- Entity Employe -->
<g id="entity-Employe">
	<g id="frame-Employe">
		<rect x="366" y="254" width="110" height="25" fill="#a6d96a" stroke="#a6d96a" stroke-width="0"/>
		<rect x="366" y="279.0" width="110" height="77" fill="#d9ef8b" stroke="#d9ef8b" stroke-width="0"/>
		<rect x="366" y="254" width="110" height="102" fill="none" stroke="#66bd63" stroke-width="2"/>
		<line x1="366" y1="279" x2="476" y2="279" stroke="#66bd63" stroke-width="1"/>
	</g>
	<text x="394" y="271.7" fill="#000000" font-family="Verdana" font-size="12">Employe</text>
	<text x="371" y="296.7" fill="#000000" font-family="Verdana" font-size="12">login</text>
	<line x1="371" y1="299" x2="401" y2="299" stroke="#000000" stroke-width="1"/>
	<text x="371" y="313.8" fill="#000000" font-family="Verdana" font-size="12">nomEmploye</text>
	<text x="371" y="330.8" fill="#000000" font-family="Verdana" font-size="12">prenomEmploye</text>
	<text x="371" y="347.8" fill="#000000" font-family="Verdana" font-size="12">mdp</text>
</g>

<!-- Entity Patient -->
<g id="entity-Patient">
	<g id="frame-Patient">
		<rect x="120" y="186" width="100" height="25" fill="#a6d96a" stroke="#a6d96a" stroke-width="0"/>
		<rect x="120" y="211.0" width="100" height="213" fill="#d9ef8b" stroke="#d9ef8b" stroke-width="0"/>
		<rect x="120" y="186" width="100" height="238" fill="none" stroke="#66bd63" stroke-width="2"/>
		<line x1="120" y1="211" x2="220" y2="211" stroke="#66bd63" stroke-width="1"/>
	</g>
	<text x="148" y="203.7" fill="#000000" font-family="Verdana" font-size="12">Patient</text>
	<text x="125" y="228.7" fill="#000000" font-family="Verdana" font-size="12">idPatient</text>
	<line x1="125" y1="231" x2="179" y2="231" stroke="#000000" stroke-width="1"/>
	<text x="125" y="245.7" fill="#000000" font-family="Verdana" font-size="12">numSecu</text>
	<text x="125" y="262.7" fill="#000000" font-family="Verdana" font-size="12">numMutuelle</text>
	<text x="125" y="279.7" fill="#000000" font-family="Verdana" font-size="12">civilite</text>
	<text x="125" y="296.7" fill="#000000" font-family="Verdana" font-size="12">nomPatient</text>
	<text x="125" y="313.8" fill="#000000" font-family="Verdana" font-size="12">prenomPatient</text>
	<text x="125" y="330.8" fill="#000000" font-family="Verdana" font-size="12">dateNaissance</text>
	<text x="125" y="347.8" fill="#000000" font-family="Verdana" font-size="12">adresse</text>
	<text x="125" y="364.8" fill="#000000" font-family="Verdana" font-size="12">dateEntree</text>
	<text x="125" y="381.8" fill="#000000" font-family="Verdana" font-size="12">dateSortie</text>
	<text x="125" y="398.8" fill="#000000" font-family="Verdana" font-size="12">telephone</text>
	<text x="125" y="415.8" fill="#000000" font-family="Verdana" font-size="12">nivUrgence</text>
</g>

<!-- Entity Statut -->
<g id="entity-Statut">
	<g id="frame-Statut">
		<rect x="533" y="34" width="60" height="25" fill="#a6d96a" stroke="#a6d96a" stroke-width="0"/>
		<rect x="533" y="59.0" width="60" height="43" fill="#d9ef8b" stroke="#d9ef8b" stroke-width="0"/>
		<rect x="533" y="34" width="60" height="68" fill="none" stroke="#66bd63" stroke-width="2"/>
		<line x1="533" y1="59" x2="593" y2="59" stroke="#66bd63" stroke-width="1"/>
	</g>
	<text x="544" y="51.7" fill="#000000" font-family="Verdana" font-size="12">Statut</text>
	<text x="538" y="76.8" fill="#000000" font-family="Verdana" font-size="12">idStatut</text>
	<line x1="538" y1="79" x2="587" y2="79" stroke="#000000" stroke-width="1"/>
	<text x="538" y="93.8" fill="#000000" font-family="Verdana" font-size="12">service</text>
</g>

<!-- Entity Statut_medecin -->
<g id="entity-Statut_medecin">
	<g id="frame-Statut_medecin">
		<rect x="509" y="440" width="108" height="25" fill="#a6d96a" stroke="#a6d96a" stroke-width="0"/>
		<rect x="509" y="465.0" width="108" height="43" fill="#d9ef8b" stroke="#d9ef8b" stroke-width="0"/>
		<rect x="509" y="440" width="108" height="68" fill="none" stroke="#66bd63" stroke-width="2"/>
		<line x1="509" y1="465" x2="617" y2="465" stroke="#66bd63" stroke-width="1"/>
	</g>
	<text x="515" y="457.7" fill="#000000" font-family="Verdana" font-size="12">Statut_medecin</text>
	<text x="514" y="482.8" fill="#000000" font-family="Verdana" font-size="12">idStatutMedecin</text>
	<line x1="514" y1="485" x2="612" y2="485" stroke="#000000" stroke-width="1"/>
	<text x="514" y="499.8" fill="#000000" font-family="Verdana" font-size="12">Statut</text>
</g>

<!-- Entity Lit -->
<g id="entity-Lit">
	<g id="frame-Lit">
		<rect x="9" y="9" width="94" height="25" fill="#a6d96a" stroke="#a6d96a" stroke-width="0"/>
		<rect x="9" y="34.0" width="94" height="93" fill="#d9ef8b" stroke="#d9ef8b" stroke-width="0"/>
		<rect x="9" y="9" width="94" height="118" fill="none" stroke="#66bd63" stroke-width="2"/>
		<line x1="9" y1="34" x2="103" y2="34" stroke="#66bd63" stroke-width="1"/>
	</g>
	<text x="48" y="26.7" fill="#000000" font-family="Verdana" font-size="12">Lit</text>
	<text x="14" y="51.7" fill="#000000" font-family="Verdana" font-size="12">numLit</text>
	<line x1="14" y1="54" x2="57" y2="54" stroke="#000000" stroke-width="1"/>
	<text x="14" y="68.8" fill="#000000" font-family="Verdana" font-size="12">numBloc</text>
	<text x="14" y="85.8" fill="#000000" font-family="Verdana" font-size="12">numChambre</text>
	<text x="14" y="102.8" fill="#000000" font-family="Verdana" font-size="12">numEtage</text>
	<text x="14" y="119.8" fill="#000000" font-family="Verdana" font-size="12">nomAile</text>
</g>

<!-- Entity Role -->
<g id="entity-Role">
	<g id="frame-Role">
		<rect x="618" y="271" width="64" height="25" fill="#a6d96a" stroke="#a6d96a" stroke-width="0"/>
		<rect x="618" y="296.0" width="64" height="43" fill="#d9ef8b" stroke="#d9ef8b" stroke-width="0"/>
		<rect x="618" y="271" width="64" height="68" fill="none" stroke="#66bd63" stroke-width="2"/>
		<line x1="618" y1="296" x2="682" y2="296" stroke="#66bd63" stroke-width="1"/>
	</g>
	<text x="636" y="288.7" fill="#000000" font-family="Verdana" font-size="12">Role</text>
	<text x="623" y="313.8" fill="#000000" font-family="Verdana" font-size="12">idRole</text>
	<line x1="623" y1="316" x2="661" y2="316" stroke="#000000" stroke-width="1"/>
	<text x="623" y="330.8" fill="#000000" font-family="Verdana" font-size="12">nomRole</text>
</g>

<!-- Entity Traitement -->
<g id="entity-Traitement">
	<g id="frame-Traitement">
		<rect x="233" y="533" width="104" height="25" fill="#a6d96a" stroke="#a6d96a" stroke-width="0"/>
		<rect x="233" y="558.0" width="104" height="77" fill="#d9ef8b" stroke="#d9ef8b" stroke-width="0"/>
		<rect x="233" y="533" width="104" height="102" fill="none" stroke="#66bd63" stroke-width="2"/>
		<line x1="233" y1="558" x2="337" y2="558" stroke="#66bd63" stroke-width="1"/>
	</g>
	<text x="251" y="550.7" fill="#000000" font-family="Verdana" font-size="12">Traitement</text>
	<text x="238" y="575.7" fill="#000000" font-family="Verdana" font-size="12">idTraitement</text>
	<line x1="238" y1="578" x2="316" y2="578" stroke="#000000" stroke-width="1"/>
	<text x="238" y="592.8" fill="#000000" font-family="Verdana" font-size="12">dateTraitement</text>
	<text x="238" y="609.8" fill="#000000" font-family="Verdana" font-size="12">dateApplication</text>
	<text x="238" y="626.8" fill="#000000" font-family="Verdana" font-size="12">statut</text>
</g>

<!-- Entity Commande -->
<g id="entity-Commande">
	<g id="frame-Commande">
		<rect x="356" y="660" width="130" height="25" fill="#a6d96a" stroke="#a6d96a" stroke-width="0"/>
		<rect x="356" y="685.0" width="130" height="77" fill="#d9ef8b" stroke="#d9ef8b" stroke-width="0"/>
		<rect x="356" y="660" width="130" height="102" fill="none" stroke="#66bd63" stroke-width="2"/>
		<line x1="356" y1="685" x2="486" y2="685" stroke="#66bd63" stroke-width="1"/>
	</g>
	<text x="386" y="677.7" fill="#000000" font-family="Verdana" font-size="12">Commande</text>
	<text x="361" y="702.7" fill="#000000" font-family="Verdana" font-size="12">idCommande</text>
	<line x1="361" y1="705" x2="441" y2="705" stroke="#000000" stroke-width="1"/>
	<text x="361" y="719.8" fill="#000000" font-family="Verdana" font-size="12">dateCommande</text>
	<text x="361" y="736.8" fill="#000000" font-family="Verdana" font-size="12">quantiteCommande</text>
	<text x="361" y="753.8" fill="#000000" font-family="Verdana" font-size="12">etat</text>
</g>

<!-- Entity Medicament -->
<g id="entity-Medicament">
	<g id="frame-Medicament">
		<rect x="508" y="533" width="110" height="25" fill="#a6d96a" stroke="#a6d96a" stroke-width="0"/>
		<rect x="508" y="558.0" width="110" height="77" fill="#d9ef8b" stroke="#d9ef8b" stroke-width="0"/>
		<rect x="508" y="533" width="110" height="102" fill="none" stroke="#66bd63" stroke-width="2"/>
		<line x1="508" y1="558" x2="618" y2="558" stroke="#66bd63" stroke-width="1"/>
	</g>
	<text x="526" y="550.7" fill="#000000" font-family="Verdana" font-size="12">Medicament</text>
	<text x="513" y="575.7" fill="#000000" font-family="Verdana" font-size="12">idMedicament</text>
	<line x1="513" y1="578" x2="597" y2="578" stroke="#000000" stroke-width="1"/>
	<text x="513" y="592.8" fill="#000000" font-family="Verdana" font-size="12">nomMedicament</text>
	<text x="513" y="609.8" fill="#000000" font-family="Verdana" font-size="12">principeActif</text>
	<text x="513" y="626.8" fill="#000000" font-family="Verdana" font-size="12">stock</text>
</g>
</svg>