<?xml version="1.0" standalone="no"?>
<!DOCTYPE svg PUBLIC "-//W3C//DTD SVG 1.1//EN"
"http://www.w3.org/Graphics/SVG/1.1/DTD/svg11.dtd">

<svg width="691" height="794" view_box="0 0 691 794"
xmlns="http://www.w3.org/2000/svg"
xmlns:link="http://www.w3.org/1999/xlink">\n\n<desc>Généré par Mocodo 2.3.7 le Mon, 12 Nov 2018 02:32:35</desc>

<rect id="frame" x="0" y="0" width="691" height="794" fill="#ffffbf" stroke="none" stroke-width="0"/>

<!-- Association Prendre -->
<line x1="170" y1="337" x2="170" y2="607" stroke="#f46d43" stroke-width="2"/>
<text x="175.0" y="464" fill="#1a9850" font-family="Verdana" font-size="12">0,N</text>
<line x1="285" y1="607" x2="170" y2="607" stroke="#f46d43" stroke-width="2"/>
<text x="207" y="624.0" fill="#1a9850" font-family="Verdana" font-size="12">1,1</text>
<g id="association-Prendre">
	<path d="M 187 582 a 14 14 90 0 1 14 14 V 607 h -62 V 596 a 14 14 90 0 1 14 -14" fill="#fdae61" stroke="#fdae61" stroke-width="0"/>
	<path d="M 201 607.0 v 11 a 14 14 90 0 1 -14 14 H 153 a 14 14 90 0 1 -14 -14 V 607.0 H 62" fill="#fee08b" stroke="#fee08b" stroke-width="0"/>
	<rect x="139" y="582" width="62" height="50" fill="none" rx="14" stroke="#f46d43" stroke-width="2"/>
	<line x1="139" y1="607" x2="201" y2="607" stroke="#f46d43" stroke-width="1"/>
	<text x="146" y="599.7" fill="#000000" font-family="Verdana" font-size="12">Prendre</text>
</g>

<!-- Association Infecter -->
<line x1="170" y1="337" x2="421" y2="143" stroke="#f46d43" stroke-width="2"/>
<text x="225" y="309.554088058" fill="#1a9850" font-family="Verdana" font-size="12">0,N</text>
<line x1="421" y1="51" x2="421" y2="143" stroke="#f46d43" stroke-width="2"/>
<text x="426.0" y="110" fill="#1a9850" font-family="Verdana" font-size="12">0,N</text>
<line x1="563" y1="143" x2="421" y2="143" stroke="#f46d43" stroke-width="2"/>
<text x="494" y="160.0" fill="#1a9850" font-family="Verdana" font-size="12">0,N</text>
<line x1="421" y1="337" x2="421" y2="143" stroke="#f46d43" stroke-width="2"/>
<text x="426.0" y="278" fill="#1a9850" font-family="Verdana" font-size="12">0,N</text>
<g id="association-Infecter">
	<path d="M 438 118 a 14 14 90 0 1 14 14 V 143 h -62 V 132 a 14 14 90 0 1 14 -14" fill="#fdae61" stroke="#fdae61" stroke-width="0"/>
	<path d="M 452 143.0 v 11 a 14 14 90 0 1 -14 14 H 404 a 14 14 90 0 1 -14 -14 V 143.0 H 62" fill="#fee08b" stroke="#fee08b" stroke-width="0"/>
	<rect x="390" y="118" width="62" height="50" fill="none" rx="14" stroke="#f46d43" stroke-width="2"/>
	<line x1="390" y1="143" x2="452" y2="143" stroke="#f46d43" stroke-width="1"/>
	<text x="397" y="135.7" fill="#000000" font-family="Verdana" font-size="12">Infecter</text>
</g>

<!-- Association Disponible -->
<line x1="421" y1="337" x2="421" y2="497" stroke="#f46d43" stroke-width="2"/>
<text x="426.0" y="405" fill="#1a9850" font-family="Verdana" font-size="12">1,1</text>
<line x1="563" y1="497" x2="421" y2="497" stroke="#f46d43" stroke-width="2"/>
<text x="482" y="514.0" fill="#1a9850" font-family="Verdana" font-size="12">0,N</text>
<g id="association-Disponible">
	<path d="M 446 472 a 14 14 90 0 1 14 14 V 497 h -78 V 486 a 14 14 90 0 1 14 -14" fill="#fdae61" stroke="#fdae61" stroke-width="0"/>
	<path d="M 460 497.0 v 11 a 14 14 90 0 1 -14 14 H 396 a 14 14 90 0 1 -14 -14 V 497.0 H 78" fill="#fee08b" stroke="#fee08b" stroke-width="0"/>
	<rect x="382" y="472" width="78" height="50" fill="none" rx="14" stroke="#f46d43" stroke-width="2"/>
	<line x1="382" y1="497" x2="460" y2="497" stroke="#f46d43" stroke-width="1"/>
	<text x="389" y="489.7" fill="#000000" font-family="Verdana" font-size="12">Disponible</text>
</g>

<!-- Association Faire -->
<line x1="421" y1="337" x2="563" y2="337" stroke="#f46d43" stroke-width="2"/>
<text x="481" y="354.0" fill="#1a9850" font-family="Verdana" font-size="12">1,1</text>
<line x1="650" y1="337" x2="563" y2="337" stroke="#f46d43" stroke-width="2"/>
<text x="591" y="354.0" fill="#1a9850" font-family="Verdana" font-size="12">0,N</text>
<g id="association-Faire">
	<path d="M 572 312 a 14 14 90 0 1 14 14 V 337 h -46 V 326 a 14 14 90 0 1 14 -14" fill="#fdae61" stroke="#fdae61" stroke-width="0"/>
	<path d="M 586 337.0 v 11 a 14 14 90 0 1 -14 14 H 554 a 14 14 90 0 1 -14 -14 V 337.0 H 46" fill="#fee08b" stroke="#fee08b" stroke-width="0"/>
	<rect x="540" y="312" width="46" height="50" fill="none" rx="14" stroke="#f46d43" stroke-width="2"/>
	<line x1="540" y1="337" x2="586" y2="337" stroke="#f46d43" stroke-width="1"/>
	<text x="547" y="329.7" fill="#000000" font-family="Verdana" font-size="12">Faire</text>
</g>

<!-- Association Commander -->
<line x1="421" y1="734" x2="563" y2="734" stroke="#f46d43" stroke-width="2"/>
<text x="491" y="751.0" fill="#1a9850" font-family="Verdana" font-size="12">0,N</text>
<line x1="563" y1="607" x2="563" y2="734" stroke="#f46d43" stroke-width="2"/>
<text x="568.0" y="675" fill="#1a9850" font-family="Verdana" font-size="12">1,1</text>
<g id="association-Commander">
	<path d="M 594 709 a 14 14 90 0 1 14 14 V 734 h -90 V 723 a 14 14 90 0 1 14 -14" fill="#fdae61" stroke="#fdae61" stroke-width="0"/>
	<path d="M 608 734.0 v 11 a 14 14 90 0 1 -14 14 H 532 a 14 14 90 0 1 -14 -14 V 734.0 H 90" fill="#fee08b" stroke="#fee08b" stroke-width="0"/>
	<rect x="518" y="709" width="90" height="50" fill="none" rx="14" stroke="#f46d43" stroke-width="2"/>
	<line x1="518" y1="734" x2="608" y2="734" stroke="#f46d43" stroke-width="1"/>
	<text x="525" y="726.7" fill="#000000" font-family="Verdana" font-size="12">Commander</text>
</g>

<!-- Association Allonger -->
<line x1="170" y1="337" x2="56" y2="337" stroke="#f46d43" stroke-width="2"/>
<text x="94" y="354.0" fill="#1a9850" font-family="Verdana" font-size="12">0,1</text>
<line x1="56" y1="143" x2="56" y2="337" stroke="#f46d43" stroke-width="2"/>
<text x="61.0" y="219" fill="#1a9850" font-family="Verdana" font-size="12">0,N</text>
<g id="association-Allonger">
	<path d="M 74 312 a 14 14 90 0 1 14 14 V 337 h -64 V 326 a 14 14 90 0 1 14 -14" fill="#fdae61" stroke="#fdae61" stroke-width="0"/>
	<path d="M 88 337.0 v 11 a 14 14 90 0 1 -14 14 H 38 a 14 14 90 0 1 -14 -14 V 337.0 H 64" fill="#fee08b" stroke="#fee08b" stroke-width="0"/>
	<rect x="24" y="312" width="64" height="50" fill="none" rx="14" stroke="#f46d43" stroke-width="2"/>
	<line x1="24" y1="337" x2="88" y2="337" stroke="#f46d43" stroke-width="1"/>
	<text x="31" y="329.7" fill="#000000" font-family="Verdana" font-size="12">Allonger</text>
</g>

<!-- Association Affecter -->
<line x1="170" y1="337" x2="170" y2="143" stroke="#f46d43" stroke-width="2"/>
<text x="144.0" y="219" fill="#1a9850" font-family="Verdana" font-size="12">1,1</text>
<line x1="285" y1="51" x2="170" y2="143" stroke="#f46d43" stroke-width="2"/>
<text x="228" y="72.9666953297" fill="#1a9850" font-family="Verdana" font-size="12">0,N</text>
<g id="association-Affecter">
	<path d="M 187 118 a 14 14 90 0 1 14 14 V 143 h -62 V 132 a 14 14 90 0 1 14 -14" fill="#fdae61" stroke="#fdae61" stroke-width="0"/>
	<path d="M 201 143.0 v 11 a 14 14 90 0 1 -14 14 H 153 a 14 14 90 0 1 -14 -14 V 143.0 H 62" fill="#fee08b" stroke="#fee08b" stroke-width="0"/>
	<rect x="139" y="118" width="62" height="50" fill="none" rx="14" stroke="#f46d43" stroke-width="2"/>
	<line x1="139" y1="143" x2="201" y2="143" stroke="#f46d43" stroke-width="1"/>
	<text x="146" y="135.7" fill="#000000" font-family="Verdana" font-size="12">Affecter</text>
</g>

<!-- Association Composer -->
<line x1="285" y1="607" x2="421" y2="607" stroke="#f46d43" stroke-width="2"/>
<text x="342" y="624.0" fill="#1a9850" font-family="Verdana" font-size="12">1,N</text>
<line x1="563" y1="607" x2="421" y2="607" stroke="#f46d43" stroke-width="2"/>
<text x="481" y="624.0" fill="#1a9850" font-family="Verdana" font-size="12">0,N</text>
<g id="association-Composer">
	<path d="M 459 582 a 14 14 90 0 1 14 14 V 607 h -104 V 596 a 14 14 90 0 1 14 -14" fill="#fdae61" stroke="#fdae61" stroke-width="0"/>
	<path d="M 473 607.0 v 11 a 14 14 90 0 1 -14 14 H 383 a 14 14 90 0 1 -14 -14 V 607.0 H 104" fill="#fee08b" stroke="#fee08b" stroke-width="0"/>
	<rect x="369" y="582" width="104" height="50" fill="none" rx="14" stroke="#f46d43" stroke-width="2"/>
	<line x1="369" y1="607" x2="473" y2="607" stroke="#f46d43" stroke-width="1"/>
	<text x="390" y="599.7" fill="#000000" font-family="Verdana" font-size="12">Composer</text>
	<text x="376" y="624.8" fill="#000000" font-family="Verdana" font-size="12">quantiteMedoc</text>
</g>

<!-- Association Gerer -->
<line x1="421" y1="337" x2="285" y2="497" stroke="#f46d43" stroke-width="2"/>
<text x="376.387150937" y="405" fill="#1a9850" font-family="Verdana" font-size="12">0,N</text>
<line x1="285" y1="607" x2="285" y2="497" stroke="#f46d43" stroke-width="2"/>
<text x="290.0" y="548" fill="#1a9850" font-family="Verdana" font-size="12">0,N</text>
<g id="association-Gerer">
	<path d="M 327 472 a 14 14 90 0 1 14 14 V 497 h -112 V 486 a 14 14 90 0 1 14 -14" fill="#fdae61" stroke="#fdae61" stroke-width="0"/>
	<path d="M 341 497.0 v 11 a 14 14 90 0 1 -14 14 H 243 a 14 14 90 0 1 -14 -14 V 497.0 H 112" fill="#fee08b" stroke="#fee08b" stroke-width="0"/>
	<rect x="229" y="472" width="112" height="50" fill="none" rx="14" stroke="#f46d43" stroke-width="2"/>
	<line x1="229" y1="497" x2="341" y2="497" stroke="#f46d43" stroke-width="1"/>
	<text x="267" y="489.7" fill="#000000" font-family="Verdana" font-size="12">Gerer</text>
	<text x="236" y="514.8" fill="#000000" font-family="Verdana" font-size="12">datePrescription</text>
</g>

<!-- Entity Maladie -->
<g id="entity-Maladie">
	<g id="frame-Maladie">
		<rect x="521" y="109" width="84" height="25" fill="#a6d96a" stroke="#a6d96a" stroke-width="0"/>
		<rect x="521" y="134.0" width="84" height="43" fill="#d9ef8b" stroke="#d9ef8b" stroke-width="0"/>
		<rect x="521" y="109" width="84" height="68" fill="none" stroke="#66bd63" stroke-width="2"/>
		<line x1="521" y1="134" x2="605" y2="134" stroke="#66bd63" stroke-width="1"/>
	</g>
	<text x="539" y="126.7" fill="#000000" font-family="Verdana" font-size="12">Maladie</text>
	<text x="526" y="151.8" fill="#000000" font-family="Verdana" font-size="12">idMaladie</text>
	<line x1="526" y1="154" x2="584" y2="154" stroke="#000000" stroke-width="1"/>
	<text x="526" y="168.8" fill="#000000" font-family="Verdana" font-size="12">nomMaladie</text>
</g>

<!-- Entity Employe -->
<g id="entity-Employe">
	<g id="frame-Employe">
		<rect x="366" y="286" width="110" height="25" fill="#a6d96a" stroke="#a6d96a" stroke-width="0"/>
		<rect x="366" y="311.0" width="110" height="77" fill="#d9ef8b" stroke="#d9ef8b" stroke-width="0"/>
		<rect x="366" y="286" width="110" height="102" fill="none" stroke="#66bd63" stroke-width="2"/>
		<line x1="366" y1="311" x2="476" y2="311" stroke="#66bd63" stroke-width="1"/>
	</g>
	<text x="394" y="303.7" fill="#000000" font-family="Verdana" font-size="12">Employe</text>
	<text x="371" y="328.7" fill="#000000" font-family="Verdana" font-size="12">login</text>
	<line x1="371" y1="331" x2="401" y2="331" stroke="#000000" stroke-width="1"/>
	<text x="371" y="345.8" fill="#000000" font-family="Verdana" font-size="12">nomEmploye</text>
	<text x="371" y="362.8" fill="#000000" font-family="Verdana" font-size="12">prenomEmploye</text>
	<text x="371" y="379.8" fill="#000000" font-family="Verdana" font-size="12">mdp</text>
</g>

<!-- Entity Patient -->
<g id="entity-Patient">
	<g id="frame-Patient">
		<rect x="120" y="227" width="100" height="25" fill="#a6d96a" stroke="#a6d96a" stroke-width="0"/>
		<rect x="120" y="252.0" width="100" height="195" fill="#d9ef8b" stroke="#d9ef8b" stroke-width="0"/>
		<rect x="120" y="227" width="100" height="220" fill="none" stroke="#66bd63" stroke-width="2"/>
		<line x1="120" y1="252" x2="220" y2="252" stroke="#66bd63" stroke-width="1"/>
	</g>
	<text x="148" y="244.7" fill="#000000" font-family="Verdana" font-size="12">Patient</text>
	<text x="125" y="269.7" fill="#000000" font-family="Verdana" font-size="12">idPatient</text>
	<line x1="125" y1="272" x2="179" y2="272" stroke="#000000" stroke-width="1"/>
	<text x="125" y="286.7" fill="#000000" font-family="Verdana" font-size="12">numSecu</text>
	<text x="125" y="303.7" fill="#000000" font-family="Verdana" font-size="12">numMutuelle</text>
	<text x="125" y="320.7" fill="#000000" font-family="Verdana" font-size="12">civilite</text>
	<text x="125" y="337.8" fill="#000000" font-family="Verdana" font-size="12">nomPatient</text>
	<text x="125" y="354.8" fill="#000000" font-family="Verdana" font-size="12">prenomPatient</text>
	<text x="125" y="371.8" fill="#000000" font-family="Verdana" font-size="12">dateNaissance</text>
	<text x="125" y="388.8" fill="#000000" font-family="Verdana" font-size="12">adresse</text>
	<text x="125" y="405.8" fill="#000000" font-family="Verdana" font-size="12">dateEntree</text>
	<text x="125" y="422.8" fill="#000000" font-family="Verdana" font-size="12">dateSortie</text>
	<text x="125" y="439.8" fill="#000000" font-family="Verdana" font-size="12">telephone</text>
</g>

<!-- Entity Statut -->
<g id="entity-Statut">
	<g id="frame-Statut">
		<rect x="255" y="17" width="60" height="25" fill="#a6d96a" stroke="#a6d96a" stroke-width="0"/>
		<rect x="255" y="42.0" width="60" height="43" fill="#d9ef8b" stroke="#d9ef8b" stroke-width="0"/>
		<rect x="255" y="17" width="60" height="68" fill="none" stroke="#66bd63" stroke-width="2"/>
		<line x1="255" y1="42" x2="315" y2="42" stroke="#66bd63" stroke-width="1"/>
	</g>
	<text x="266" y="34.7" fill="#000000" font-family="Verdana" font-size="12">Statut</text>
	<text x="260" y="59.8" fill="#000000" font-family="Verdana" font-size="12">idStatut</text>
	<line x1="260" y1="62" x2="309" y2="62" stroke="#000000" stroke-width="1"/>
	<text x="260" y="76.8" fill="#000000" font-family="Verdana" font-size="12">service</text>
</g>

<!-- Entity Statut_medecin -->
<g id="entity-Statut_medecin">
	<g id="frame-Statut_medecin">
		<rect x="509" y="463" width="108" height="25" fill="#a6d96a" stroke="#a6d96a" stroke-width="0"/>
		<rect x="509" y="488.0" width="108" height="43" fill="#d9ef8b" stroke="#d9ef8b" stroke-width="0"/>
		<rect x="509" y="463" width="108" height="68" fill="none" stroke="#66bd63" stroke-width="2"/>
		<line x1="509" y1="488" x2="617" y2="488" stroke="#66bd63" stroke-width="1"/>
	</g>
	<text x="515" y="480.7" fill="#000000" font-family="Verdana" font-size="12">Statut_medecin</text>
	<text x="514" y="505.8" fill="#000000" font-family="Verdana" font-size="12">idStatutMedecin</text>
	<line x1="514" y1="508" x2="612" y2="508" stroke="#000000" stroke-width="1"/>
	<text x="514" y="522.8" fill="#000000" font-family="Verdana" font-size="12">Statut</text>
</g>

<!-- Entity Lit -->
<g id="entity-Lit">
	<g id="frame-Lit">
		<rect x="9" y="84" width="94" height="25" fill="#a6d96a" stroke="#a6d96a" stroke-width="0"/>
		<rect x="9" y="109.0" width="94" height="93" fill="#d9ef8b" stroke="#d9ef8b" stroke-width="0"/>
		<rect x="9" y="84" width="94" height="118" fill="none" stroke="#66bd63" stroke-width="2"/>
		<line x1="9" y1="109" x2="103" y2="109" stroke="#66bd63" stroke-width="1"/>
	</g>
	<text x="48" y="101.7" fill="#000000" font-family="Verdana" font-size="12">Lit</text>
	<text x="14" y="126.7" fill="#000000" font-family="Verdana" font-size="12">numLit</text>
	<line x1="14" y1="129" x2="57" y2="129" stroke="#000000" stroke-width="1"/>
	<text x="14" y="143.8" fill="#000000" font-family="Verdana" font-size="12">numBloc</text>
	<text x="14" y="160.8" fill="#000000" font-family="Verdana" font-size="12">numChambre</text>
	<text x="14" y="177.8" fill="#000000" font-family="Verdana" font-size="12">numEtage</text>
	<text x="14" y="194.8" fill="#000000" font-family="Verdana" font-size="12">nomAile</text>
</g>

<!-- Entity DateDiag -->
<g id="entity-DateDiag">
	<g id="frame-DateDiag">
		<rect x="374" y="9" width="94" height="25" fill="#a6d96a" stroke="#a6d96a" stroke-width="0"/>
		<rect x="374" y="34.0" width="94" height="59" fill="#d9ef8b" stroke="#d9ef8b" stroke-width="0"/>
		<rect x="374" y="9" width="94" height="84" fill="none" stroke="#66bd63" stroke-width="2"/>
		<line x1="374" y1="34" x2="468" y2="34" stroke="#66bd63" stroke-width="1"/>
	</g>
	<text x="392" y="26.7" fill="#000000" font-family="Verdana" font-size="12">DateDiag</text>
	<text x="379" y="51.8" fill="#000000" font-family="Verdana" font-size="12">idDate</text>
	<line x1="379" y1="54" x2="419" y2="54" stroke="#000000" stroke-width="1"/>
	<text x="379" y="68.8" fill="#000000" font-family="Verdana" font-size="12">dateDignostic</text>
	<text x="379" y="85.8" fill="#000000" font-family="Verdana" font-size="12">dateGuerison</text>
</g>

<!-- Entity Role -->
<g id="entity-Role">
	<g id="frame-Role">
		<rect x="618" y="303" width="64" height="25" fill="#a6d96a" stroke="#a6d96a" stroke-width="0"/>
		<rect x="618" y="328.0" width="64" height="43" fill="#d9ef8b" stroke="#d9ef8b" stroke-width="0"/>
		<rect x="618" y="303" width="64" height="68" fill="none" stroke="#66bd63" stroke-width="2"/>
		<line x1="618" y1="328" x2="682" y2="328" stroke="#66bd63" stroke-width="1"/>
	</g>
	<text x="636" y="320.7" fill="#000000" font-family="Verdana" font-size="12">Role</text>
	<text x="623" y="345.8" fill="#000000" font-family="Verdana" font-size="12">idRole</text>
	<line x1="623" y1="348" x2="661" y2="348" stroke="#000000" stroke-width="1"/>
	<text x="623" y="362.8" fill="#000000" font-family="Verdana" font-size="12">nomRole</text>
</g>

<!-- Entity Traitement -->
<g id="entity-Traitement">
	<g id="frame-Traitement">
		<rect x="233" y="556" width="104" height="25" fill="#a6d96a" stroke="#a6d96a" stroke-width="0"/>
		<rect x="233" y="581.0" width="104" height="77" fill="#d9ef8b" stroke="#d9ef8b" stroke-width="0"/>
		<rect x="233" y="556" width="104" height="102" fill="none" stroke="#66bd63" stroke-width="2"/>
		<line x1="233" y1="581" x2="337" y2="581" stroke="#66bd63" stroke-width="1"/>
	</g>
	<text x="251" y="573.7" fill="#000000" font-family="Verdana" font-size="12">Traitement</text>
	<text x="238" y="598.7" fill="#000000" font-family="Verdana" font-size="12">idTraitement</text>
	<line x1="238" y1="601" x2="316" y2="601" stroke="#000000" stroke-width="1"/>
	<text x="238" y="615.8" fill="#000000" font-family="Verdana" font-size="12">dateTraitement</text>
	<text x="238" y="632.8" fill="#000000" font-family="Verdana" font-size="12">dateApplication</text>
	<text x="238" y="649.8" fill="#000000" font-family="Verdana" font-size="12">statut</text>
</g>

<!-- Entity Commande -->
<g id="entity-Commande">
	<g id="frame-Commande">
		<rect x="356" y="683" width="130" height="25" fill="#a6d96a" stroke="#a6d96a" stroke-width="0"/>
		<rect x="356" y="708.0" width="130" height="77" fill="#d9ef8b" stroke="#d9ef8b" stroke-width="0"/>
		<rect x="356" y="683" width="130" height="102" fill="none" stroke="#66bd63" stroke-width="2"/>
		<line x1="356" y1="708" x2="486" y2="708" stroke="#66bd63" stroke-width="1"/>
	</g>
	<text x="386" y="700.7" fill="#000000" font-family="Verdana" font-size="12">Commande</text>
	<text x="361" y="725.7" fill="#000000" font-family="Verdana" font-size="12">idCommande</text>
	<line x1="361" y1="728" x2="441" y2="728" stroke="#000000" stroke-width="1"/>
	<text x="361" y="742.8" fill="#000000" font-family="Verdana" font-size="12">dateCommande</text>
	<text x="361" y="759.8" fill="#000000" font-family="Verdana" font-size="12">quantiteCommande</text>
	<text x="361" y="776.8" fill="#000000" font-family="Verdana" font-size="12">etat</text>
</g>

<!-- Entity Medicament -->
<g id="entity-Medicament">
	<g id="frame-Medicament">
		<rect x="508" y="556" width="110" height="25" fill="#a6d96a" stroke="#a6d96a" stroke-width="0"/>
		<rect x="508" y="581.0" width="110" height="77" fill="#d9ef8b" stroke="#d9ef8b" stroke-width="0"/>
		<rect x="508" y="556" width="110" height="102" fill="none" stroke="#66bd63" stroke-width="2"/>
		<line x1="508" y1="581" x2="618" y2="581" stroke="#66bd63" stroke-width="1"/>
	</g>
	<text x="526" y="573.7" fill="#000000" font-family="Verdana" font-size="12">Medicament</text>
	<text x="513" y="598.7" fill="#000000" font-family="Verdana" font-size="12">idMedicament</text>
	<line x1="513" y1="601" x2="597" y2="601" stroke="#000000" stroke-width="1"/>
	<text x="513" y="615.8" fill="#000000" font-family="Verdana" font-size="12">nomMedicament</text>
	<text x="513" y="632.8" fill="#000000" font-family="Verdana" font-size="12">principeActif</text>
	<text x="513" y="649.8" fill="#000000" font-family="Verdana" font-size="12">stock</text>
</g>
</svg>