<?xml version="1.0" standalone="no"?>
<!DOCTYPE svg PUBLIC "-//W3C//DTD SVG 1.1//EN"
"http://www.w3.org/Graphics/SVG/1.1/DTD/svg11.dtd">

<svg width="652" height="624" view_box="0 0 652 624"
xmlns="http://www.w3.org/2000/svg"
xmlns:link="http://www.w3.org/1999/xlink">\n\n<desc>Généré par Mocodo 2.3.7 le Mon, 15 Oct 2018 09:07:30</desc>

<rect id="frame" x="0" y="0" width="652" height="624" fill="#ffffbf" stroke="none" stroke-width="0"/>

<!-- Association Prendre -->
<line x1="200" y1="200" x2="200" y2="550" stroke="#66c2a5" stroke-width="2"/>
<text x="205.0" y="310" fill="#d53e4f" font-family="Verdana" font-size="12">0,N</text>
<line x1="400" y1="550" x2="200" y2="550" stroke="#66c2a5" stroke-width="2"/>
<text x="322" y="567.0" fill="#d53e4f" font-family="Verdana" font-size="12">1,1</text>
<g id="association-Prendre">
	<path d="M 217 525 a 14 14 90 0 1 14 14 V 550 h -62 V 539 a 14 14 90 0 1 14 -14" fill="#abdda4" stroke="#abdda4" stroke-width="0"/>
	<path d="M 231 550.0 v 11 a 14 14 90 0 1 -14 14 H 183 a 14 14 90 0 1 -14 -14 V 550.0 H 62" fill="#e6f598" stroke="#e6f598" stroke-width="0"/>
	<rect x="169" y="525" width="62" height="50" fill="none" rx="14" stroke="#66c2a5" stroke-width="2"/>
	<line x1="169" y1="550" x2="231" y2="550" stroke="#66c2a5" stroke-width="1"/>
	<text x="176" y="542.7" fill="#000000" font-family="Verdana" font-size="12">Prendre</text>
</g>

<!-- Association Infecter -->
<line x1="200" y1="200" x2="400" y2="200" stroke="#66c2a5" stroke-width="2"/>
<text x="254" y="217.0" fill="#d53e4f" font-family="Verdana" font-size="12">0,N</text>
<line x1="400" y1="50" x2="400" y2="200" stroke="#66c2a5" stroke-width="2"/>
<text x="405.0" y="109" fill="#d53e4f" font-family="Verdana" font-size="12">0,N</text>
<line x1="500" y1="200" x2="400" y2="200" stroke="#66c2a5" stroke-width="2"/>
<text x="431" y="217.0" fill="#d53e4f" font-family="Verdana" font-size="12">0,N</text>
<line x1="400" y1="320" x2="400" y2="200" stroke="#66c2a5" stroke-width="2"/>
<text x="405.0" y="261" fill="#d53e4f" font-family="Verdana" font-size="12">0,N</text>
<g id="association-Infecter">
	<path d="M 417 175 a 14 14 90 0 1 14 14 V 200 h -62 V 189 a 14 14 90 0 1 14 -14" fill="#abdda4" stroke="#abdda4" stroke-width="0"/>
	<path d="M 431 200.0 v 11 a 14 14 90 0 1 -14 14 H 383 a 14 14 90 0 1 -14 -14 V 200.0 H 62" fill="#e6f598" stroke="#e6f598" stroke-width="0"/>
	<rect x="369" y="175" width="62" height="50" fill="none" rx="14" stroke="#66c2a5" stroke-width="2"/>
	<line x1="369" y1="200" x2="431" y2="200" stroke="#66c2a5" stroke-width="1"/>
	<text x="376" y="192.7" fill="#000000" font-family="Verdana" font-size="12">Infecter</text>
</g>

<!-- Association Faire -->
<line x1="400" y1="320" x2="532" y2="320" stroke="#66c2a5" stroke-width="2"/>
<text x="437" y="337.0" fill="#d53e4f" font-family="Verdana" font-size="12">1,1</text>
<line x1="619" y1="320" x2="532" y2="320" stroke="#66c2a5" stroke-width="2"/>
<text x="568" y="337.0" fill="#d53e4f" font-family="Verdana" font-size="12">0,N</text>
<g id="association-Faire">
	<path d="M 541 295 a 14 14 90 0 1 14 14 V 320 h -46 V 309 a 14 14 90 0 1 14 -14" fill="#abdda4" stroke="#abdda4" stroke-width="0"/>
	<path d="M 555 320.0 v 11 a 14 14 90 0 1 -14 14 H 523 a 14 14 90 0 1 -14 -14 V 320.0 H 46" fill="#e6f598" stroke="#e6f598" stroke-width="0"/>
	<rect x="509" y="295" width="46" height="50" fill="none" rx="14" stroke="#66c2a5" stroke-width="2"/>
	<line x1="509" y1="320" x2="555" y2="320" stroke="#66c2a5" stroke-width="1"/>
	<text x="516" y="312.7" fill="#000000" font-family="Verdana" font-size="12">Faire</text>
</g>

<!-- Association Allonger -->
<line x1="200" y1="200" x2="50" y2="200" stroke="#66c2a5" stroke-width="2"/>
<text x="125" y="192.0" fill="#d53e4f" font-family="Verdana" font-size="12">0,1</text>
<line x1="50" y1="300" x2="50" y2="200" stroke="#66c2a5" stroke-width="2"/>
<text x="55.0" y="233" fill="#d53e4f" font-family="Verdana" font-size="12">0,N</text>
<g id="association-Allonger">
	<path d="M 68 175 a 14 14 90 0 1 14 14 V 200 h -64 V 189 a 14 14 90 0 1 14 -14" fill="#abdda4" stroke="#abdda4" stroke-width="0"/>
	<path d="M 82 200.0 v 11 a 14 14 90 0 1 -14 14 H 32 a 14 14 90 0 1 -14 -14 V 200.0 H 64" fill="#e6f598" stroke="#e6f598" stroke-width="0"/>
	<rect x="18" y="175" width="64" height="50" fill="none" rx="14" stroke="#66c2a5" stroke-width="2"/>
	<line x1="18" y1="200" x2="82" y2="200" stroke="#66c2a5" stroke-width="1"/>
	<text x="25" y="192.7" fill="#000000" font-family="Verdana" font-size="12">Allonger</text>
</g>

<!-- Association Affecter -->
<line x1="200" y1="200" x2="200" y2="50" stroke="#66c2a5" stroke-width="2"/>
<text x="174.0" y="99" fill="#d53e4f" font-family="Verdana" font-size="12">1,1</text>
<line x1="50" y1="50" x2="200" y2="50" stroke="#66c2a5" stroke-width="2"/>
<text x="85" y="67.0" fill="#d53e4f" font-family="Verdana" font-size="12">0,N</text>
<g id="association-Affecter">
	<path d="M 217 25 a 14 14 90 0 1 14 14 V 50 h -62 V 39 a 14 14 90 0 1 14 -14" fill="#abdda4" stroke="#abdda4" stroke-width="0"/>
	<path d="M 231 50.0 v 11 a 14 14 90 0 1 -14 14 H 183 a 14 14 90 0 1 -14 -14 V 50.0 H 62" fill="#e6f598" stroke="#e6f598" stroke-width="0"/>
	<rect x="169" y="25" width="62" height="50" fill="none" rx="14" stroke="#66c2a5" stroke-width="2"/>
	<line x1="169" y1="50" x2="231" y2="50" stroke="#66c2a5" stroke-width="1"/>
	<text x="176" y="42.7" fill="#000000" font-family="Verdana" font-size="12">Affecter</text>
</g>

<!-- Association Composer -->
<line x1="400" y1="550" x2="550" y2="550" stroke="#66c2a5" stroke-width="2"/>
<text x="457" y="567.0" fill="#d53e4f" font-family="Verdana" font-size="12">1,N</text>
<line x1="550" y1="450" x2="550" y2="550" stroke="#66c2a5" stroke-width="2"/>
<text x="555.0" y="509" fill="#d53e4f" font-family="Verdana" font-size="12">0,N</text>
<g id="association-Composer">
	<path d="M 588 525 a 14 14 90 0 1 14 14 V 550 h -104 V 539 a 14 14 90 0 1 14 -14" fill="#abdda4" stroke="#abdda4" stroke-width="0"/>
	<path d="M 602 550.0 v 11 a 14 14 90 0 1 -14 14 H 512 a 14 14 90 0 1 -14 -14 V 550.0 H 104" fill="#e6f598" stroke="#e6f598" stroke-width="0"/>
	<rect x="498" y="525" width="104" height="50" fill="none" rx="14" stroke="#66c2a5" stroke-width="2"/>
	<line x1="498" y1="550" x2="602" y2="550" stroke="#66c2a5" stroke-width="1"/>
	<text x="519" y="542.7" fill="#000000" font-family="Verdana" font-size="12">Composer</text>
	<text x="505" y="567.8" fill="#000000" font-family="Verdana" font-size="12">quantiteMedoc</text>
</g>

<!-- Association Gerer -->
<line x1="400" y1="320" x2="400" y2="425" stroke="#66c2a5" stroke-width="2"/>
<text x="405.0" y="388" fill="#d53e4f" font-family="Verdana" font-size="12">0,N</text>
<line x1="400" y1="550" x2="400" y2="425" stroke="#66c2a5" stroke-width="2"/>
<text x="405.0" y="491" fill="#d53e4f" font-family="Verdana" font-size="12">0,N</text>
<g id="association-Gerer">
	<path d="M 442 400 a 14 14 90 0 1 14 14 V 425 h -112 V 414 a 14 14 90 0 1 14 -14" fill="#abdda4" stroke="#abdda4" stroke-width="0"/>
	<path d="M 456 425.0 v 11 a 14 14 90 0 1 -14 14 H 358 a 14 14 90 0 1 -14 -14 V 425.0 H 112" fill="#e6f598" stroke="#e6f598" stroke-width="0"/>
	<rect x="344" y="400" width="112" height="50" fill="none" rx="14" stroke="#66c2a5" stroke-width="2"/>
	<line x1="344" y1="425" x2="456" y2="425" stroke="#66c2a5" stroke-width="1"/>
	<text x="382" y="417.7" fill="#000000" font-family="Verdana" font-size="12">Gerer</text>
	<text x="351" y="442.8" fill="#000000" font-family="Verdana" font-size="12">datePrescription</text>
</g>

<!-- Entity Maladie -->
<g id="entity-Maladie">
	<g id="frame-Maladie">
		<rect x="458" y="166" width="84" height="25" fill="#fdae61" stroke="#fdae61" stroke-width="0"/>
		<rect x="458" y="191.0" width="84" height="43" fill="#fee08b" stroke="#fee08b" stroke-width="0"/>
		<rect x="458" y="166" width="84" height="68" fill="none" stroke="#f46d43" stroke-width="2"/>
		<line x1="458" y1="191" x2="542" y2="191" stroke="#f46d43" stroke-width="1"/>
	</g>
	<text x="476" y="183.7" fill="#000000" font-family="Verdana" font-size="12">Maladie</text>
	<text x="463" y="208.8" fill="#000000" font-family="Verdana" font-size="12">idMaladie</text>
	<line x1="463" y1="211" x2="521" y2="211" stroke="#000000" stroke-width="1"/>
	<text x="463" y="225.8" fill="#000000" font-family="Verdana" font-size="12">nomMaladie</text>
</g>

<!-- Entity Employe -->
<g id="entity-Employe">
	<g id="frame-Employe">
		<rect x="368" y="269" width="64" height="25" fill="#fdae61" stroke="#fdae61" stroke-width="0"/>
		<rect x="368" y="294.0" width="64" height="77" fill="#fee08b" stroke="#fee08b" stroke-width="0"/>
		<rect x="368" y="269" width="64" height="102" fill="none" stroke="#f46d43" stroke-width="2"/>
		<line x1="368" y1="294" x2="432" y2="294" stroke="#f46d43" stroke-width="1"/>
	</g>
	<text x="373" y="286.7" fill="#000000" font-family="Verdana" font-size="12">Employe</text>
	<text x="373" y="311.7" fill="#000000" font-family="Verdana" font-size="12">login</text>
	<line x1="373" y1="314" x2="403" y2="314" stroke="#000000" stroke-width="1"/>
	<text x="373" y="328.8" fill="#000000" font-family="Verdana" font-size="12">nom</text>
	<text x="373" y="345.8" fill="#000000" font-family="Verdana" font-size="12">prenom</text>
	<text x="373" y="362.8" fill="#000000" font-family="Verdana" font-size="12">mdp</text>
</g>

<!-- Entity Patient -->
<g id="entity-Patient">
	<g id="frame-Patient">
		<rect x="151" y="107" width="98" height="25" fill="#fdae61" stroke="#fdae61" stroke-width="0"/>
		<rect x="151" y="132.0" width="98" height="161" fill="#fee08b" stroke="#fee08b" stroke-width="0"/>
		<rect x="151" y="107" width="98" height="186" fill="none" stroke="#f46d43" stroke-width="2"/>
		<line x1="151" y1="132" x2="249" y2="132" stroke="#f46d43" stroke-width="1"/>
	</g>
	<text x="178" y="124.7" fill="#000000" font-family="Verdana" font-size="12">Patient</text>
	<text x="156" y="149.7" fill="#000000" font-family="Verdana" font-size="12">idPatient</text>
	<line x1="156" y1="152" x2="210" y2="152" stroke="#000000" stroke-width="1"/>
	<text x="156" y="166.7" fill="#000000" font-family="Verdana" font-size="12">numSecu</text>
	<text x="156" y="183.7" fill="#000000" font-family="Verdana" font-size="12">nom</text>
	<text x="156" y="200.8" fill="#000000" font-family="Verdana" font-size="12">prenom</text>
	<text x="156" y="217.8" fill="#000000" font-family="Verdana" font-size="12">dateNaissance</text>
	<text x="156" y="234.8" fill="#000000" font-family="Verdana" font-size="12">adresse</text>
	<text x="156" y="251.8" fill="#000000" font-family="Verdana" font-size="12">dateEntree</text>
	<text x="156" y="268.8" fill="#000000" font-family="Verdana" font-size="12">dateSortie</text>
	<text x="156" y="285.8" fill="#000000" font-family="Verdana" font-size="12">telephone</text>
</g>

<!-- Entity Statut -->
<g id="entity-Statut">
	<g id="frame-Statut">
		<rect x="20" y="16" width="60" height="25" fill="#fdae61" stroke="#fdae61" stroke-width="0"/>
		<rect x="20" y="41.0" width="60" height="43" fill="#fee08b" stroke="#fee08b" stroke-width="0"/>
		<rect x="20" y="16" width="60" height="68" fill="none" stroke="#f46d43" stroke-width="2"/>
		<line x1="20" y1="41" x2="80" y2="41" stroke="#f46d43" stroke-width="1"/>
	</g>
	<text x="31" y="33.7" fill="#000000" font-family="Verdana" font-size="12">Statut</text>
	<text x="25" y="58.8" fill="#000000" font-family="Verdana" font-size="12">idStatut</text>
	<line x1="25" y1="61" x2="74" y2="61" stroke="#000000" stroke-width="1"/>
	<text x="25" y="75.8" fill="#000000" font-family="Verdana" font-size="12">Service</text>
</g>

<!-- Entity Lit -->
<g id="entity-Lit">
	<g id="frame-Lit">
		<rect x="3" y="241" width="94" height="25" fill="#fdae61" stroke="#fdae61" stroke-width="0"/>
		<rect x="3" y="266.0" width="94" height="93" fill="#fee08b" stroke="#fee08b" stroke-width="0"/>
		<rect x="3" y="241" width="94" height="118" fill="none" stroke="#f46d43" stroke-width="2"/>
		<line x1="3" y1="266" x2="97" y2="266" stroke="#f46d43" stroke-width="1"/>
	</g>
	<text x="42" y="258.7" fill="#000000" font-family="Verdana" font-size="12">Lit</text>
	<text x="8" y="283.7" fill="#000000" font-family="Verdana" font-size="12">numLit</text>
	<line x1="8" y1="286" x2="51" y2="286" stroke="#000000" stroke-width="1"/>
	<text x="8" y="300.8" fill="#000000" font-family="Verdana" font-size="12">numBloc</text>
	<text x="8" y="317.8" fill="#000000" font-family="Verdana" font-size="12">numChambre</text>
	<text x="8" y="334.8" fill="#000000" font-family="Verdana" font-size="12">numEtage</text>
	<text x="8" y="351.8" fill="#000000" font-family="Verdana" font-size="12">nomAile</text>
</g>

<!-- Entity DateDiag -->
<g id="entity-DateDiag">
	<g id="frame-DateDiag">
		<rect x="353" y="8" width="94" height="25" fill="#fdae61" stroke="#fdae61" stroke-width="0"/>
		<rect x="353" y="33.0" width="94" height="59" fill="#fee08b" stroke="#fee08b" stroke-width="0"/>
		<rect x="353" y="8" width="94" height="84" fill="none" stroke="#f46d43" stroke-width="2"/>
		<line x1="353" y1="33" x2="447" y2="33" stroke="#f46d43" stroke-width="1"/>
	</g>
	<text x="371" y="25.7" fill="#000000" font-family="Verdana" font-size="12">DateDiag</text>
	<text x="358" y="50.8" fill="#000000" font-family="Verdana" font-size="12">idDate</text>
	<line x1="358" y1="53" x2="398" y2="53" stroke="#000000" stroke-width="1"/>
	<text x="358" y="67.8" fill="#000000" font-family="Verdana" font-size="12">dateDignostic</text>
	<text x="358" y="84.8" fill="#000000" font-family="Verdana" font-size="12">dateGuerison</text>
</g>

<!-- Entity Role -->
<g id="entity-Role">
	<g id="frame-Role">
		<rect x="595" y="286" width="48" height="25" fill="#fdae61" stroke="#fdae61" stroke-width="0"/>
		<rect x="595" y="311.0" width="48" height="43" fill="#fee08b" stroke="#fee08b" stroke-width="0"/>
		<rect x="595" y="286" width="48" height="68" fill="none" stroke="#f46d43" stroke-width="2"/>
		<line x1="595" y1="311" x2="643" y2="311" stroke="#f46d43" stroke-width="1"/>
	</g>
	<text x="605" y="303.7" fill="#000000" font-family="Verdana" font-size="12">Role</text>
	<text x="600" y="328.8" fill="#000000" font-family="Verdana" font-size="12">idRole</text>
	<line x1="600" y1="331" x2="638" y2="331" stroke="#000000" stroke-width="1"/>
	<text x="600" y="345.8" fill="#000000" font-family="Verdana" font-size="12">Nom</text>
</g>

<!-- Entity Traitement -->
<g id="entity-Traitement">
	<g id="frame-Traitement">
		<rect x="348" y="499" width="104" height="25" fill="#fdae61" stroke="#fdae61" stroke-width="0"/>
		<rect x="348" y="524.0" width="104" height="77" fill="#fee08b" stroke="#fee08b" stroke-width="0"/>
		<rect x="348" y="499" width="104" height="102" fill="none" stroke="#f46d43" stroke-width="2"/>
		<line x1="348" y1="524" x2="452" y2="524" stroke="#f46d43" stroke-width="1"/>
	</g>
	<text x="366" y="516.7" fill="#000000" font-family="Verdana" font-size="12">Traitement</text>
	<text x="353" y="541.7" fill="#000000" font-family="Verdana" font-size="12">idTraitement</text>
	<line x1="353" y1="544" x2="431" y2="544" stroke="#000000" stroke-width="1"/>
	<text x="353" y="558.8" fill="#000000" font-family="Verdana" font-size="12">dateTraitement</text>
	<text x="353" y="575.8" fill="#000000" font-family="Verdana" font-size="12">dateApplication</text>
	<text x="353" y="592.8" fill="#000000" font-family="Verdana" font-size="12">statut</text>
</g>

<!-- Entity Medicament -->
<g id="entity-Medicament">
	<g id="frame-Medicament">
		<rect x="495" y="408" width="110" height="25" fill="#fdae61" stroke="#fdae61" stroke-width="0"/>
		<rect x="495" y="433.0" width="110" height="59" fill="#fee08b" stroke="#fee08b" stroke-width="0"/>
		<rect x="495" y="408" width="110" height="84" fill="none" stroke="#f46d43" stroke-width="2"/>
		<line x1="495" y1="433" x2="605" y2="433" stroke="#f46d43" stroke-width="1"/>
	</g>
	<text x="513" y="425.7" fill="#000000" font-family="Verdana" font-size="12">Medicament</text>
	<text x="500" y="450.8" fill="#000000" font-family="Verdana" font-size="12">nomMedicament</text>
	<line x1="500" y1="453" x2="600" y2="453" stroke="#000000" stroke-width="1"/>
	<text x="500" y="467.8" fill="#000000" font-family="Verdana" font-size="12">principeActif</text>
	<text x="500" y="484.8" fill="#000000" font-family="Verdana" font-size="12">stock</text>
</g>
</svg>