<?xml version="1.0" standalone="no"?>
<!DOCTYPE svg PUBLIC "-//W3C//DTD SVG 1.1//EN"
"http://www.w3.org/Graphics/SVG/1.1/DTD/svg11.dtd">

<svg width="652" height="658" view_box="0 0 652 658"
xmlns="http://www.w3.org/2000/svg"
xmlns:link="http://www.w3.org/1999/xlink">\n\n<desc>Généré par Mocodo 2.3.7 le Tue, 16 Oct 2018 00:31:22</desc>

<rect id="frame" x="0" y="0" width="652" height="658" fill="#f5f5f5" stroke="none" stroke-width="0"/>

<!-- Association Prendre -->
<line x1="169" y1="337" x2="56" y2="598" stroke="#35978f" stroke-width="2"/>
<text x="122.984032538" y="464" fill="#8c510a" font-family="Verdana" font-size="12">0,N</text>
<line x1="257" y1="598" x2="56" y2="598" stroke="#35978f" stroke-width="2"/>
<text x="179" y="615.0" fill="#8c510a" font-family="Verdana" font-size="12">1,1</text>
<g id="association-Prendre">
	<path d="M 73 573 a 14 14 90 0 1 14 14 V 598 h -62 V 587 a 14 14 90 0 1 14 -14" fill="#80cdc1" stroke="#80cdc1" stroke-width="0"/>
	<path d="M 87 598.0 v 11 a 14 14 90 0 1 -14 14 H 39 a 14 14 90 0 1 -14 -14 V 598.0 H 62" fill="#c7eae5" stroke="#c7eae5" stroke-width="0"/>
	<rect x="25" y="573" width="62" height="50" fill="none" rx="14" stroke="#35978f" stroke-width="2"/>
	<line x1="25" y1="598" x2="87" y2="598" stroke="#35978f" stroke-width="1"/>
	<text x="32" y="590.7" fill="#000000" font-family="Verdana" font-size="12">Prendre</text>
</g>

<!-- Association Infecter -->
<line x1="169" y1="337" x2="393" y2="143" stroke="#35978f" stroke-width="2"/>
<text x="223" y="305.207355156" fill="#8c510a" font-family="Verdana" font-size="12">0,N</text>
<line x1="393" y1="51" x2="393" y2="143" stroke="#35978f" stroke-width="2"/>
<text x="398.0" y="110" fill="#8c510a" font-family="Verdana" font-size="12">0,N</text>
<line x1="532" y1="143" x2="393" y2="143" stroke="#35978f" stroke-width="2"/>
<text x="463" y="160.0" fill="#8c510a" font-family="Verdana" font-size="12">0,N</text>
<line x1="393" y1="337" x2="393" y2="143" stroke="#35978f" stroke-width="2"/>
<text x="398.0" y="278" fill="#8c510a" font-family="Verdana" font-size="12">0,N</text>
<g id="association-Infecter">
	<path d="M 410 118 a 14 14 90 0 1 14 14 V 143 h -62 V 132 a 14 14 90 0 1 14 -14" fill="#80cdc1" stroke="#80cdc1" stroke-width="0"/>
	<path d="M 424 143.0 v 11 a 14 14 90 0 1 -14 14 H 376 a 14 14 90 0 1 -14 -14 V 143.0 H 62" fill="#c7eae5" stroke="#c7eae5" stroke-width="0"/>
	<rect x="362" y="118" width="62" height="50" fill="none" rx="14" stroke="#35978f" stroke-width="2"/>
	<line x1="362" y1="143" x2="424" y2="143" stroke="#35978f" stroke-width="1"/>
	<text x="369" y="135.7" fill="#000000" font-family="Verdana" font-size="12">Infecter</text>
</g>

<!-- Association Faire -->
<line x1="393" y1="337" x2="532" y2="337" stroke="#35978f" stroke-width="2"/>
<text x="430" y="354.0" fill="#8c510a" font-family="Verdana" font-size="12">1,1</text>
<line x1="619" y1="337" x2="532" y2="337" stroke="#35978f" stroke-width="2"/>
<text x="568" y="354.0" fill="#8c510a" font-family="Verdana" font-size="12">0,N</text>
<g id="association-Faire">
	<path d="M 541 312 a 14 14 90 0 1 14 14 V 337 h -46 V 326 a 14 14 90 0 1 14 -14" fill="#80cdc1" stroke="#80cdc1" stroke-width="0"/>
	<path d="M 555 337.0 v 11 a 14 14 90 0 1 -14 14 H 523 a 14 14 90 0 1 -14 -14 V 337.0 H 46" fill="#c7eae5" stroke="#c7eae5" stroke-width="0"/>
	<rect x="509" y="312" width="46" height="50" fill="none" rx="14" stroke="#35978f" stroke-width="2"/>
	<line x1="509" y1="337" x2="555" y2="337" stroke="#35978f" stroke-width="1"/>
	<text x="516" y="329.7" fill="#000000" font-family="Verdana" font-size="12">Faire</text>
</g>

<!-- Association Allonger -->
<line x1="169" y1="337" x2="56" y2="337" stroke="#35978f" stroke-width="2"/>
<text x="94" y="329.0" fill="#8c510a" font-family="Verdana" font-size="12">0,1</text>
<line x1="56" y1="143" x2="56" y2="337" stroke="#35978f" stroke-width="2"/>
<text x="61.0" y="219" fill="#8c510a" font-family="Verdana" font-size="12">0,N</text>
<g id="association-Allonger">
	<path d="M 74 312 a 14 14 90 0 1 14 14 V 337 h -64 V 326 a 14 14 90 0 1 14 -14" fill="#80cdc1" stroke="#80cdc1" stroke-width="0"/>
	<path d="M 88 337.0 v 11 a 14 14 90 0 1 -14 14 H 38 a 14 14 90 0 1 -14 -14 V 337.0 H 64" fill="#c7eae5" stroke="#c7eae5" stroke-width="0"/>
	<rect x="24" y="312" width="64" height="50" fill="none" rx="14" stroke="#35978f" stroke-width="2"/>
	<line x1="24" y1="337" x2="88" y2="337" stroke="#35978f" stroke-width="1"/>
	<text x="31" y="329.7" fill="#000000" font-family="Verdana" font-size="12">Allonger</text>
</g>

<!-- Association Affecter -->
<line x1="169" y1="337" x2="169" y2="143" stroke="#35978f" stroke-width="2"/>
<text x="143.0" y="219" fill="#8c510a" font-family="Verdana" font-size="12">1,1</text>
<line x1="257" y1="51" x2="169" y2="143" stroke="#35978f" stroke-width="2"/>
<text x="200" y="81.2124711214" fill="#8c510a" font-family="Verdana" font-size="12">0,N</text>
<g id="association-Affecter">
	<path d="M 186 118 a 14 14 90 0 1 14 14 V 143 h -62 V 132 a 14 14 90 0 1 14 -14" fill="#80cdc1" stroke="#80cdc1" stroke-width="0"/>
	<path d="M 200 143.0 v 11 a 14 14 90 0 1 -14 14 H 152 a 14 14 90 0 1 -14 -14 V 143.0 H 62" fill="#c7eae5" stroke="#c7eae5" stroke-width="0"/>
	<rect x="138" y="118" width="62" height="50" fill="none" rx="14" stroke="#35978f" stroke-width="2"/>
	<line x1="138" y1="143" x2="200" y2="143" stroke="#35978f" stroke-width="1"/>
	<text x="145" y="135.7" fill="#000000" font-family="Verdana" font-size="12">Affecter</text>
</g>

<!-- Association Composer -->
<line x1="257" y1="598" x2="393" y2="598" stroke="#35978f" stroke-width="2"/>
<text x="314" y="615.0" fill="#8c510a" font-family="Verdana" font-size="12">1,N</text>
<line x1="532" y1="598" x2="393" y2="598" stroke="#35978f" stroke-width="2"/>
<text x="450" y="615.0" fill="#8c510a" font-family="Verdana" font-size="12">0,N</text>
<g id="association-Composer">
	<path d="M 431 573 a 14 14 90 0 1 14 14 V 598 h -104 V 587 a 14 14 90 0 1 14 -14" fill="#80cdc1" stroke="#80cdc1" stroke-width="0"/>
	<path d="M 445 598.0 v 11 a 14 14 90 0 1 -14 14 H 355 a 14 14 90 0 1 -14 -14 V 598.0 H 104" fill="#c7eae5" stroke="#c7eae5" stroke-width="0"/>
	<rect x="341" y="573" width="104" height="50" fill="none" rx="14" stroke="#35978f" stroke-width="2"/>
	<line x1="341" y1="598" x2="445" y2="598" stroke="#35978f" stroke-width="1"/>
	<text x="362" y="590.7" fill="#000000" font-family="Verdana" font-size="12">Composer</text>
	<text x="348" y="615.8" fill="#000000" font-family="Verdana" font-size="12">quantiteMedoc</text>
</g>

<!-- Association Gerer -->
<line x1="393" y1="337" x2="257" y2="497" stroke="#35978f" stroke-width="2"/>
<text x="334" y="372.909907886" fill="#8c510a" font-family="Verdana" font-size="12">0,N</text>
<line x1="257" y1="598" x2="257" y2="497" stroke="#35978f" stroke-width="2"/>
<text x="262.0" y="539" fill="#8c510a" font-family="Verdana" font-size="12">0,N</text>
<g id="association-Gerer">
	<path d="M 299 472 a 14 14 90 0 1 14 14 V 497 h -112 V 486 a 14 14 90 0 1 14 -14" fill="#80cdc1" stroke="#80cdc1" stroke-width="0"/>
	<path d="M 313 497.0 v 11 a 14 14 90 0 1 -14 14 H 215 a 14 14 90 0 1 -14 -14 V 497.0 H 112" fill="#c7eae5" stroke="#c7eae5" stroke-width="0"/>
	<rect x="201" y="472" width="112" height="50" fill="none" rx="14" stroke="#35978f" stroke-width="2"/>
	<line x1="201" y1="497" x2="313" y2="497" stroke="#35978f" stroke-width="1"/>
	<text x="239" y="489.7" fill="#000000" font-family="Verdana" font-size="12">Gerer</text>
	<text x="208" y="514.8" fill="#000000" font-family="Verdana" font-size="12">datePrescription</text>
</g>

<!-- Entity Maladie -->
<g id="entity-Maladie">
	<g id="frame-Maladie">
		<rect x="490" y="109" width="84" height="25" fill="#dfc27d" stroke="#dfc27d" stroke-width="0"/>
		<rect x="490" y="134.0" width="84" height="43" fill="#f6e8c3" stroke="#f6e8c3" stroke-width="0"/>
		<rect x="490" y="109" width="84" height="68" fill="none" stroke="#bf812d" stroke-width="2"/>
		<line x1="490" y1="134" x2="574" y2="134" stroke="#bf812d" stroke-width="1"/>
	</g>
	<text x="508" y="126.7" fill="#000000" font-family="Verdana" font-size="12">Maladie</text>
	<text x="495" y="151.8" fill="#000000" font-family="Verdana" font-size="12">idMaladie</text>
	<line x1="495" y1="154" x2="553" y2="154" stroke="#000000" stroke-width="1"/>
	<text x="495" y="168.8" fill="#000000" font-family="Verdana" font-size="12">nomMaladie</text>
</g>

<!-- Entity Employe -->
<g id="entity-Employe">
	<g id="frame-Employe">
		<rect x="361" y="286" width="64" height="25" fill="#dfc27d" stroke="#dfc27d" stroke-width="0"/>
		<rect x="361" y="311.0" width="64" height="77" fill="#f6e8c3" stroke="#f6e8c3" stroke-width="0"/>
		<rect x="361" y="286" width="64" height="102" fill="none" stroke="#bf812d" stroke-width="2"/>
		<line x1="361" y1="311" x2="425" y2="311" stroke="#bf812d" stroke-width="1"/>
	</g>
	<text x="366" y="303.7" fill="#000000" font-family="Verdana" font-size="12">Employe</text>
	<text x="366" y="328.7" fill="#000000" font-family="Verdana" font-size="12">login</text>
	<line x1="366" y1="331" x2="396" y2="331" stroke="#000000" stroke-width="1"/>
	<text x="366" y="345.8" fill="#000000" font-family="Verdana" font-size="12">nom</text>
	<text x="366" y="362.8" fill="#000000" font-family="Verdana" font-size="12">prenom</text>
	<text x="366" y="379.8" fill="#000000" font-family="Verdana" font-size="12">mdp</text>
</g>

<!-- Entity Patient -->
<g id="entity-Patient">
	<g id="frame-Patient">
		<rect x="120" y="227" width="98" height="25" fill="#dfc27d" stroke="#dfc27d" stroke-width="0"/>
		<rect x="120" y="252.0" width="98" height="195" fill="#f6e8c3" stroke="#f6e8c3" stroke-width="0"/>
		<rect x="120" y="227" width="98" height="220" fill="none" stroke="#bf812d" stroke-width="2"/>
		<line x1="120" y1="252" x2="218" y2="252" stroke="#bf812d" stroke-width="1"/>
	</g>
	<text x="147" y="244.7" fill="#000000" font-family="Verdana" font-size="12">Patient</text>
	<text x="125" y="269.7" fill="#000000" font-family="Verdana" font-size="12">idPatient</text>
	<line x1="125" y1="272" x2="179" y2="272" stroke="#000000" stroke-width="1"/>
	<text x="125" y="286.7" fill="#000000" font-family="Verdana" font-size="12">numSecu</text>
	<text x="125" y="303.7" fill="#000000" font-family="Verdana" font-size="12">numMutuelle</text>
	<text x="125" y="320.7" fill="#000000" font-family="Verdana" font-size="12">civilite</text>
	<text x="125" y="337.8" fill="#000000" font-family="Verdana" font-size="12">nom</text>
	<text x="125" y="354.8" fill="#000000" font-family="Verdana" font-size="12">prenom</text>
	<text x="125" y="371.8" fill="#000000" font-family="Verdana" font-size="12">dateNaissance</text>
	<text x="125" y="388.8" fill="#000000" font-family="Verdana" font-size="12">adresse</text>
	<text x="125" y="405.8" fill="#000000" font-family="Verdana" font-size="12">dateEntree</text>
	<text x="125" y="422.8" fill="#000000" font-family="Verdana" font-size="12">dateSortie</text>
	<text x="125" y="439.8" fill="#000000" font-family="Verdana" font-size="12">telephone</text>
</g>

<!-- Entity Statut -->
<g id="entity-Statut">
	<g id="frame-Statut">
		<rect x="227" y="17" width="60" height="25" fill="#dfc27d" stroke="#dfc27d" stroke-width="0"/>
		<rect x="227" y="42.0" width="60" height="43" fill="#f6e8c3" stroke="#f6e8c3" stroke-width="0"/>
		<rect x="227" y="17" width="60" height="68" fill="none" stroke="#bf812d" stroke-width="2"/>
		<line x1="227" y1="42" x2="287" y2="42" stroke="#bf812d" stroke-width="1"/>
	</g>
	<text x="238" y="34.7" fill="#000000" font-family="Verdana" font-size="12">Statut</text>
	<text x="232" y="59.8" fill="#000000" font-family="Verdana" font-size="12">idStatut</text>
	<line x1="232" y1="62" x2="281" y2="62" stroke="#000000" stroke-width="1"/>
	<text x="232" y="76.8" fill="#000000" font-family="Verdana" font-size="12">Service</text>
</g>

<!-- Entity Lit -->
<g id="entity-Lit">
	<g id="frame-Lit">
		<rect x="9" y="84" width="94" height="25" fill="#dfc27d" stroke="#dfc27d" stroke-width="0"/>
		<rect x="9" y="109.0" width="94" height="93" fill="#f6e8c3" stroke="#f6e8c3" stroke-width="0"/>
		<rect x="9" y="84" width="94" height="118" fill="none" stroke="#bf812d" stroke-width="2"/>
		<line x1="9" y1="109" x2="103" y2="109" stroke="#bf812d" stroke-width="1"/>
	</g>
	<text x="48" y="101.7" fill="#000000" font-family="Verdana" font-size="12">Lit</text>
	<text x="14" y="126.7" fill="#000000" font-family="Verdana" font-size="12">numLit</text>
	<line x1="14" y1="129" x2="57" y2="129" stroke="#000000" stroke-width="1"/>
	<text x="14" y="143.8" fill="#000000" font-family="Verdana" font-size="12">numBloc</text>
	<text x="14" y="160.8" fill="#000000" font-family="Verdana" font-size="12">numChambre</text>
	<text x="14" y="177.8" fill="#000000" font-family="Verdana" font-size="12">numEtage</text>
	<text x="14" y="194.8" fill="#000000" font-family="Verdana" font-size="12">nomAile</text>
</g>

<!-- Entity DateDiag -->
<g id="entity-DateDiag">
	<g id="frame-DateDiag">
		<rect x="346" y="9" width="94" height="25" fill="#dfc27d" stroke="#dfc27d" stroke-width="0"/>
		<rect x="346" y="34.0" width="94" height="59" fill="#f6e8c3" stroke="#f6e8c3" stroke-width="0"/>
		<rect x="346" y="9" width="94" height="84" fill="none" stroke="#bf812d" stroke-width="2"/>
		<line x1="346" y1="34" x2="440" y2="34" stroke="#bf812d" stroke-width="1"/>
	</g>
	<text x="364" y="26.7" fill="#000000" font-family="Verdana" font-size="12">DateDiag</text>
	<text x="351" y="51.8" fill="#000000" font-family="Verdana" font-size="12">idDate</text>
	<line x1="351" y1="54" x2="391" y2="54" stroke="#000000" stroke-width="1"/>
	<text x="351" y="68.8" fill="#000000" font-family="Verdana" font-size="12">dateDignostic</text>
	<text x="351" y="85.8" fill="#000000" font-family="Verdana" font-size="12">dateGuerison</text>
</g>

<!-- Entity Role -->
<g id="entity-Role">
	<g id="frame-Role">
		<rect x="595" y="303" width="48" height="25" fill="#dfc27d" stroke="#dfc27d" stroke-width="0"/>
		<rect x="595" y="328.0" width="48" height="43" fill="#f6e8c3" stroke="#f6e8c3" stroke-width="0"/>
		<rect x="595" y="303" width="48" height="68" fill="none" stroke="#bf812d" stroke-width="2"/>
		<line x1="595" y1="328" x2="643" y2="328" stroke="#bf812d" stroke-width="1"/>
	</g>
	<text x="605" y="320.7" fill="#000000" font-family="Verdana" font-size="12">Role</text>
	<text x="600" y="345.8" fill="#000000" font-family="Verdana" font-size="12">idRole</text>
	<line x1="600" y1="348" x2="638" y2="348" stroke="#000000" stroke-width="1"/>
	<text x="600" y="362.8" fill="#000000" font-family="Verdana" font-size="12">Nom</text>
</g>

<!-- Entity Traitement -->
<g id="entity-Traitement">
	<g id="frame-Traitement">
		<rect x="205" y="547" width="104" height="25" fill="#dfc27d" stroke="#dfc27d" stroke-width="0"/>
		<rect x="205" y="572.0" width="104" height="77" fill="#f6e8c3" stroke="#f6e8c3" stroke-width="0"/>
		<rect x="205" y="547" width="104" height="102" fill="none" stroke="#bf812d" stroke-width="2"/>
		<line x1="205" y1="572" x2="309" y2="572" stroke="#bf812d" stroke-width="1"/>
	</g>
	<text x="223" y="564.7" fill="#000000" font-family="Verdana" font-size="12">Traitement</text>
	<text x="210" y="589.7" fill="#000000" font-family="Verdana" font-size="12">idTraitement</text>
	<line x1="210" y1="592" x2="288" y2="592" stroke="#000000" stroke-width="1"/>
	<text x="210" y="606.8" fill="#000000" font-family="Verdana" font-size="12">dateTraitement</text>
	<text x="210" y="623.8" fill="#000000" font-family="Verdana" font-size="12">dateApplication</text>
	<text x="210" y="640.8" fill="#000000" font-family="Verdana" font-size="12">statut</text>
</g>

<!-- Entity Medicament -->
<g id="entity-Medicament">
	<g id="frame-Medicament">
		<rect x="477" y="547" width="110" height="25" fill="#dfc27d" stroke="#dfc27d" stroke-width="0"/>
		<rect x="477" y="572.0" width="110" height="77" fill="#f6e8c3" stroke="#f6e8c3" stroke-width="0"/>
		<rect x="477" y="547" width="110" height="102" fill="none" stroke="#bf812d" stroke-width="2"/>
		<line x1="477" y1="572" x2="587" y2="572" stroke="#bf812d" stroke-width="1"/>
	</g>
	<text x="495" y="564.7" fill="#000000" font-family="Verdana" font-size="12">Medicament</text>
	<text x="482" y="589.7" fill="#000000" font-family="Verdana" font-size="12">idMedicament</text>
	<line x1="482" y1="592" x2="566" y2="592" stroke="#000000" stroke-width="1"/>
	<text x="482" y="606.8" fill="#000000" font-family="Verdana" font-size="12">nomMedicament</text>
	<text x="482" y="623.8" fill="#000000" font-family="Verdana" font-size="12">principeActif</text>
	<text x="482" y="640.8" fill="#000000" font-family="Verdana" font-size="12">stock</text>
</g>
</svg>